<?xml version="1.0" encoding="UTF-8" standalone="no"?>
<!DOCTYPE svg PUBLIC "-//W3C//DTD SVG 1.1//EN" "http://www.w3.org/Graphics/SVG/1.1/DTD/svg11.dtd">
<svg xmlns="http://www.w3.org/2000/svg" version="1.1" viewBox="0 0 1452 1444">
<path fill="rgb(255,255,255)" fill-opacity="1.000" d="M 0.00 0.00 Q 726.00 0.00 1452.00 0.00 Q 1452.00 722.00 1452.00 1444.00 Q 726.00 1444.00 0.00 1444.00 Q 0.00 722.00 0.00 0.00 Z M 973.67 498.20 Q 972.30 499.15 971.10 500.35 Q 948.79 522.83 917.95 530.51 Q 916.63 530.84 917.90 531.32 Q 940.10 539.63 963.90 543.30 Q 981.60 546.03 999.44 544.40 Q 1014.05 543.06 1027.87 535.69 A 1.81 1.79 42.1 0 1 1029.41 535.62 Q 1070.65 553.10 1115.25 548.50 Q 1159.27 543.96 1196.19 517.64 Q 1230.27 493.34 1248.94 457.69 Q 1265.92 425.25 1268.16 387.75 Q 1268.76 377.76 1268.10 367.76 Q 1264.90 319.86 1237.83 280.63 Q 1232.11 272.35 1225.52 264.89 Q 1201.85 238.11 1169.69 223.06 Q 1134.81 206.74 1095.98 206.93 Q 1086.11 206.98 1076.05 208.23 Q 1019.49 215.28 978.56 254.31 Q 939.48 291.58 928.78 344.96 Q 926.81 354.77 926.02 364.76 Q 924.71 381.49 926.50 396.75 Q 933.36 455.09 973.76 497.26 A 0.62 0.61 50.8 0 1 973.67 498.20 Z M 614.79 438.50 Q 611.52 459.27 610.90 480.24 Q 610.54 492.32 610.54 500.25 Q 610.55 526.66 616.53 552.49 Q 620.97 571.67 631.56 584.94 Q 644.96 601.72 668.00 601.04 L 670.29 625.75 L 672.21 651.00 A 0.67 0.64 78.8 0 1 671.78 651.68 L 661.75 655.04 L 640.21 659.75 Q 615.33 665.02 587.25 674.75 Q 573.32 679.58 561.82 686.46 Q 556.26 689.79 550.42 694.98 Q 544.63 700.12 540.06 704.81 Q 523.17 722.17 503.73 744.22 Q 477.46 774.01 451.52 805.07 A 0.54 0.53 38.5 0 0 451.61 805.84 Q 502.90 845.10 553.75 884.00 Q 556.90 886.41 558.25 887.04 Q 558.27 889.10 557.46 891.00 Q 556.82 891.02 556.06 890.44 Q 502.84 849.65 449.33 808.76 A 0.76 0.76 -51.3 0 0 448.28 808.88 L 437.79 821.65 A 0.96 0.90 38.5 0 0 437.99 822.98 L 445.29 828.50 L 424.98 848.89 A 0.75 0.75 51.8 0 1 423.80 848.75 Q 379.55 775.25 337.60 699.83 Q 324.92 677.02 314.22 653.23 Q 312.17 648.67 312.50 643.00 Q 312.98 634.83 313.50 631.00 Q 315.59 615.67 318.36 600.44 Q 319.55 593.93 319.57 593.56 Q 319.78 589.67 317.78 586.58 Q 315.12 582.48 309.79 581.57 Q 303.99 580.58 300.16 584.86 Q 298.29 586.95 295.84 593.22 Q 291.67 603.88 287.29 615.00 Q 286.91 615.96 286.58 614.98 Q 273.35 576.32 260.21 537.68 Q 258.92 533.90 257.44 532.31 Q 253.81 528.43 249.30 529.42 Q 245.99 530.15 244.03 532.79 Q 241.87 535.70 242.75 539.50 Q 250.59 573.36 258.71 607.15 Q 259.32 609.71 257.95 608.13 Q 257.70 607.85 257.50 607.45 Q 243.36 579.42 229.03 551.49 Q 226.16 545.88 225.91 545.57 Q 223.36 542.35 218.75 543.50 Q 214.39 544.59 213.74 548.55 Q 213.39 550.69 214.80 554.80 Q 225.56 586.16 236.54 617.45 Q 236.97 618.67 236.13 618.34 Q 235.84 618.23 235.61 617.91 Q 221.56 598.82 207.60 579.66 Q 205.53 576.81 203.69 575.06 Q 201.25 572.75 198.00 574.08 Q 194.09 575.70 194.03 579.18 Q 193.99 580.95 195.76 584.60 Q 213.41 621.11 230.10 658.07 Q 235.09 669.13 239.21 680.55 Q 281.40 797.64 324.21 914.50 Q 332.48 937.36 349.19 954.06 Q 373.04 977.91 406.77 984.40 Q 444.69 991.69 478.75 974.21 Q 497.21 964.61 512.06 947.31 Q 527.94 928.81 533.54 921.75 L 548.25 904.71 L 553.71 908.00 Q 554.10 908.42 554.24 908.12 Q 554.45 907.68 554.54 907.60 L 569.75 892.71 Q 570.20 892.68 570.23 893.00 Q 572.93 924.75 575.50 956.50 Q 575.62 958.06 576.50 959.29 L 589.64 1103.57 A 0.55 0.53 -2.2 0 0 590.19 1104.06 Q 637.72 1104.39 685.25 1104.45 Q 692.63 1104.46 700.00 1104.71 Q 702.49 1105.03 712.25 1105.25 Q 753.25 1106.18 770.75 1105.98 Q 781.04 1105.87 806.25 1106.00 Q 852.89 1106.24 918.41 1105.81 Q 924.08 1105.78 937.07 1105.86 Q 946.41 1105.91 955.75 1105.77 Q 965.18 1105.63 982.75 1106.00 Q 1004.31 1106.45 1104.27 1105.76 Q 1105.45 1105.75 1106.04 1105.18 Q 1107.15 1104.12 1105.81 1102.88 A 1.35 1.12 -19.6 0 0 1104.94 1102.56 Q 1023.09 1102.45 941.25 1102.50 Q 941.00 1102.50 940.25 1102.21 Q 938.38 1079.42 935.46 1056.75 L 1104.54 998.50 Q 1122.16 992.95 1128.44 990.19 Q 1170.15 971.81 1183.00 929.68 Q 1185.95 919.99 1186.83 910.08 Q 1190.08 873.35 1167.46 843.25 Q 1158.01 831.28 1144.81 822.19 Q 1106.75 795.97 1068.56 769.94 Q 1061.61 765.20 1058.96 763.75 L 1061.68 758.45 A 0.78 0.64 -60.1 0 0 1061.52 757.52 L 1044.99 746.33 A 0.46 0.46 -59.1 0 0 1044.33 746.50 L 974.43 880.14 A 0.68 0.67 24.8 0 0 974.78 881.07 L 989.31 887.03 A 1.70 1.50 -63.5 0 0 991.27 886.24 L 994.75 880.21 L 1011.50 888.71 L 1036.27 901.73 Q 1037.26 902.25 1036.27 902.74 Q 980.18 930.47 924.75 959.46 L 923.96 950.75 L 916.21 880.50 L 913.50 856.04 Q 914.63 856.04 916.44 856.81 Q 936.02 865.21 970.22 879.00 A 0.55 0.55 24.5 0 0 970.92 878.74 L 1041.28 744.20 A 0.58 0.58 30.9 0 0 1041.09 743.46 Q 1002.84 717.09 963.53 692.41 Q 943.78 680.01 922.85 669.73 Q 915.98 666.36 910.94 664.81 Q 894.71 659.83 875.53 656.32 Q 857.34 652.99 839.00 650.54 L 809.25 646.79 L 790.24 644.08 A 0.66 0.64 -89.5 0 1 789.69 643.51 L 779.25 548.79 Q 797.66 542.80 804.25 525.75 Q 809.33 512.61 809.91 498.51 Q 810.08 494.26 810.29 490.01 Q 810.53 484.95 811.60 481.64 Q 813.14 476.87 815.94 471.94 Q 821.34 462.42 820.76 450.76 Q 820.31 441.59 812.80 436.45 Q 803.93 430.37 802.06 428.69 Q 798.60 425.56 796.49 419.93 Q 794.90 415.70 794.87 415.61 Q 791.91 408.50 790.94 406.56 Q 782.21 389.23 765.44 381.76 Q 757.47 378.22 746.31 376.05 Q 731.63 373.20 716.53 375.45 Q 709.95 376.44 703.37 377.40 Q 703.27 377.42 698.65 378.20 Q 688.17 379.98 678.08 377.42 Q 673.11 376.16 667.32 373.25 Q 662.16 370.64 657.33 367.42 Q 647.59 360.91 637.41 355.11 Q 632.11 352.09 626.34 350.12 Q 615.92 346.57 606.25 349.86 Q 600.43 351.84 595.13 356.54 Q 590.18 360.92 586.63 366.65 Q 579.17 378.69 578.40 392.42 Q 577.94 400.81 580.04 407.92 Q 582.37 415.78 587.56 421.94 Q 598.08 434.41 614.79 438.50 Z"/>
<path fill="rgb(199,187,249)" fill-opacity="1.000" d="M 973.67 498.20 A 0.62 0.61 50.8 0 0 973.76 497.26 Q 933.36 455.09 926.50 396.75 Q 924.71 381.49 926.02 364.76 Q 926.81 354.77 928.78 344.96 Q 939.48 291.58 978.56 254.31 Q 1019.49 215.28 1076.05 208.23 Q 1086.11 206.98 1095.98 206.93 Q 1134.81 206.74 1169.69 223.06 Q 1201.85 238.11 1225.52 264.89 Q 1232.11 272.35 1237.83 280.63 Q 1264.90 319.86 1268.10 367.76 Q 1268.76 377.76 1268.16 387.75 Q 1265.92 425.25 1248.94 457.69 Q 1230.27 493.34 1196.19 517.64 Q 1159.27 543.96 1115.25 548.50 Q 1070.65 553.10 1029.41 535.62 A 1.81 1.79 42.1 0 0 1027.87 535.69 Q 1014.05 543.06 999.44 544.40 Q 981.60 546.03 963.90 543.30 Q 940.10 539.63 917.90 531.32 Q 916.63 530.84 917.95 530.51 Q 948.79 522.83 971.10 500.35 Q 972.30 499.15 973.67 498.20 Z M 998.19 429.31 Q 1006.38 434.69 1011.38 428.50 Q 1013.22 426.22 1014.25 421.35 Q 1017.69 405.17 1021.03 388.97 Q 1022.27 382.97 1022.64 382.08 Q 1024.21 378.32 1028.07 376.94 Q 1030.46 376.09 1034.45 376.89 Q 1060.00 382.02 1085.51 387.34 Q 1092.39 388.77 1094.47 390.35 Q 1098.86 393.69 1097.41 400.68 Q 1093.76 418.20 1090.03 435.70 Q 1088.92 440.92 1089.25 442.75 Q 1090.13 447.64 1093.85 449.73 Q 1097.22 451.63 1101.36 450.66 Q 1105.90 449.59 1107.64 445.31 Q 1107.91 444.63 1109.36 437.78 Q 1120.04 387.32 1130.29 336.77 Q 1130.31 336.67 1131.33 332.25 Q 1132.23 328.40 1131.75 326.75 Q 1129.80 320.02 1123.77 319.09 Q 1120.06 318.51 1117.00 320.35 Q 1113.58 322.41 1112.75 326.50 Q 1109.35 343.32 1105.75 360.10 Q 1104.55 365.73 1104.24 366.49 Q 1102.80 370.08 1099.33 371.33 Q 1096.60 372.32 1090.68 371.16 Q 1064.32 366.02 1038.10 360.24 Q 1033.87 359.31 1031.97 357.54 Q 1029.04 354.80 1029.07 350.81 Q 1029.07 350.63 1030.84 341.55 Q 1035.34 318.60 1036.75 312.75 Q 1038.87 303.98 1032.22 300.62 Q 1029.24 299.11 1026.08 299.55 Q 1022.42 300.05 1020.32 302.81 Q 1018.84 304.76 1017.55 310.93 Q 1006.31 364.47 995.35 418.07 Q 994.51 422.17 994.78 423.98 Q 995.30 427.42 998.19 429.31 Z M 1191.6620 333.3957 A 12.52 12.03 8.2 0 0 1180.9858 319.7030 A 12.52 12.03 8.2 0 0 1166.8781 329.8243 A 12.52 12.03 8.2 0 0 1177.5542 343.5170 A 12.52 12.03 8.2 0 0 1191.6620 333.3957 Z M 1180.0824 373.4010 A 9.07 9.07 0 0 0 1173.0400 362.6802 L 1172.7072 362.6112 A 9.07 9.07 0 0 0 1161.9863 369.6535 L 1145.0576 451.3990 A 9.07 9.07 0 0 0 1152.0999 462.1198 L 1152.4329 462.1888 A 9.07 9.07 0 0 0 1163.1537 455.1465 L 1180.0824 373.4010 Z"/>
<path fill="rgb(255,255,255)" fill-opacity="1.000" d="M 998.19 429.31 Q 995.30 427.42 994.78 423.98 Q 994.51 422.17 995.35 418.07 Q 1006.31 364.47 1017.55 310.93 Q 1018.84 304.76 1020.32 302.81 Q 1022.42 300.05 1026.08 299.55 Q 1029.24 299.11 1032.22 300.62 Q 1038.87 303.98 1036.75 312.75 Q 1035.34 318.60 1030.84 341.55 Q 1029.07 350.63 1029.07 350.81 Q 1029.04 354.80 1031.97 357.54 Q 1033.87 359.31 1038.10 360.24 Q 1064.32 366.02 1090.68 371.16 Q 1096.60 372.32 1099.33 371.33 Q 1102.80 370.08 1104.24 366.49 Q 1104.55 365.73 1105.75 360.10 Q 1109.35 343.32 1112.75 326.50 Q 1113.58 322.41 1117.00 320.35 Q 1120.06 318.51 1123.77 319.09 Q 1129.80 320.02 1131.75 326.75 Q 1132.23 328.40 1131.33 332.25 Q 1130.31 336.67 1130.29 336.77 Q 1120.04 387.32 1109.36 437.78 Q 1107.91 444.63 1107.64 445.31 Q 1105.90 449.59 1101.36 450.66 Q 1097.22 451.63 1093.85 449.73 Q 1090.13 447.64 1089.25 442.75 Q 1088.92 440.92 1090.03 435.70 Q 1093.76 418.20 1097.41 400.68 Q 1098.86 393.69 1094.47 390.35 Q 1092.39 388.77 1085.51 387.34 Q 1060.00 382.02 1034.45 376.89 Q 1030.46 376.09 1028.07 376.94 Q 1024.21 378.32 1022.64 382.08 Q 1022.27 382.97 1021.03 388.97 Q 1017.69 405.17 1014.25 421.35 Q 1013.22 426.22 1011.38 428.50 Q 1006.38 434.69 998.19 429.31 Z"/>
<ellipse fill="rgb(255,255,255)" fill-opacity="1.000" cx="0" cy="0" rx="12.52" ry="12.03" transform="translate(1179.27,331.61) rotate(8.2)"/>
<path fill="rgb(51,51,51)" fill-opacity="1.000" d="M 779.25 548.79 L 766.61 535.48 Q 765.73 534.55 766.99 534.80 Q 773.56 536.07 779.50 533.94 Q 785.01 531.96 789.27 526.90 Q 798.28 516.22 792.31 502.99 Q 790.08 498.05 786.38 495.01 Q 782.30 491.65 777.22 490.43 Q 770.19 488.74 763.01 491.66 Q 750.72 496.67 748.99 511.69 A 0.91 0.85 82.2 0 1 748.49 512.40 Q 745.00 513.96 742.61 512.08 Q 740.87 510.71 740.02 507.25 Q 739.16 503.70 739.25 500.25 Q 739.46 492.42 740.60 482.26 Q 741.75 471.91 741.92 461.50 Q 742.00 456.42 740.68 451.52 Q 739.34 446.54 734.94 445.31 Q 728.06 443.40 720.92 446.78 Q 712.92 450.56 710.56 452.06 Q 694.12 462.49 675.58 455.78 Q 667.27 452.77 663.08 444.96 Q 659.22 437.73 651.75 438.25 Q 642.63 438.89 633.50 439.50 Q 625.37 440.04 614.79 438.50 Q 598.08 434.41 587.56 421.94 Q 582.37 415.78 580.04 407.92 Q 577.94 400.81 578.40 392.42 Q 579.17 378.69 586.63 366.65 Q 590.18 360.92 595.13 356.54 Q 600.43 351.84 606.25 349.86 Q 615.92 346.57 626.34 350.12 Q 632.11 352.09 637.41 355.11 Q 647.59 360.91 657.33 367.42 Q 662.16 370.64 667.32 373.25 Q 673.11 376.16 678.08 377.42 Q 688.17 379.98 698.65 378.20 Q 703.27 377.42 703.37 377.40 Q 709.95 376.44 716.53 375.45 Q 731.63 373.20 746.31 376.05 Q 757.47 378.22 765.44 381.76 Q 782.21 389.23 790.94 406.56 Q 791.91 408.50 794.87 415.61 Q 794.90 415.70 796.49 419.93 Q 798.60 425.56 802.06 428.69 Q 803.93 430.37 812.80 436.45 Q 820.31 441.59 820.76 450.76 Q 821.34 462.42 815.94 471.94 Q 813.14 476.87 811.60 481.64 Q 810.53 484.95 810.29 490.01 Q 810.08 494.26 809.91 498.51 Q 809.33 512.61 804.25 525.75 Q 797.66 542.80 779.25 548.79 Z"/>
<rect fill="rgb(255,255,255)" fill-opacity="1.000" x="-9.24" y="-50.81" width="18.48" height="101.62" rx="9.07" transform="translate(1162.57,412.40) rotate(11.7)"/>
<path fill="rgb(255,178,162)" fill-opacity="1.000" d="M 779.25 548.79 L 789.69 643.51 A 0.66 0.64 -89.5 0 0 790.24 644.08 L 809.25 646.79 L 806.96 650.50 L 801.75 657.29 Q 799.82 657.44 798.19 659.44 Q 795.28 662.99 791.05 666.37 Q 789.24 667.81 783.21 672.43 Q 778.44 676.08 773.22 679.09 Q 768.71 681.69 767.92 682.09 Q 765.20 683.47 762.20 684.25 Q 757.36 685.50 752.78 687.49 Q 748.51 689.36 743.97 690.04 Q 742.17 690.32 734.92 691.05 Q 720.26 692.52 704.94 687.56 Q 703.63 687.14 702.96 686.62 Q 701.79 685.71 701.77 685.70 Q 698.74 684.16 695.30 684.18 A 1.07 1.01 69.1 0 1 694.50 683.79 Q 692.51 681.37 689.94 680.31 Q 686.73 678.99 685.17 676.26 A 1.51 0.91 74.9 0 0 684.48 675.60 L 681.92 674.69 Q 681.36 674.49 681.07 674.21 Q 674.23 667.65 667.55 660.93 Q 667.46 660.83 666.94 660.12 Q 666.29 659.22 665.00 659.79 L 661.75 655.04 L 671.78 651.68 A 0.67 0.64 78.8 0 0 672.21 651.00 L 670.29 625.75 Q 696.23 604.84 722.27 584.07 Q 722.46 583.92 722.53 583.74 Q 722.77 583.13 721.82 583.75 Q 697.37 599.81 668.00 601.04 Q 644.96 601.72 631.56 584.94 Q 620.97 571.67 616.53 552.49 Q 610.55 526.66 610.54 500.25 Q 610.54 492.32 610.90 480.24 Q 611.52 459.27 614.79 438.50 Q 625.37 440.04 633.50 439.50 Q 642.63 438.89 651.75 438.25 Q 659.22 437.73 663.08 444.96 Q 667.27 452.77 675.58 455.78 Q 694.12 462.49 710.56 452.06 Q 712.92 450.56 720.92 446.78 Q 728.06 443.40 734.94 445.31 Q 739.34 446.54 740.68 451.52 Q 742.00 456.42 741.92 461.50 Q 741.75 471.91 740.60 482.26 Q 739.46 492.42 739.25 500.25 Q 739.16 503.70 740.02 507.25 Q 740.87 510.71 742.61 512.08 Q 745.00 513.96 748.49 512.40 A 0.91 0.85 82.2 0 0 748.99 511.69 Q 750.72 496.67 763.01 491.66 Q 770.19 488.74 777.22 490.43 Q 782.30 491.65 786.38 495.01 Q 790.08 498.05 792.31 502.99 Q 798.28 516.22 789.27 526.90 Q 785.01 531.96 779.50 533.94 Q 773.56 536.07 766.99 534.80 Q 765.73 534.55 766.61 535.48 L 779.25 548.79 Z M 703.7975 466.8461 A 1.70 1.70 0 0 0 702.6137 464.7536 L 686.3284 460.2373 A 1.70 1.70 0 0 0 684.2359 461.4212 L 684.1824 461.6139 A 1.70 1.70 0 0 0 685.3663 463.7064 L 701.6517 468.2227 A 1.70 1.70 0 0 0 703.7441 467.0388 L 703.7975 466.8461 Z M 638.0668 462.8688 A 1.62 1.62 0 0 0 635.9990 461.8824 L 619.5593 467.7040 A 1.62 1.62 0 0 0 618.5730 469.7719 L 618.6932 470.1112 A 1.62 1.62 0 0 0 620.7610 471.0976 L 637.2007 465.2760 A 1.62 1.62 0 0 0 638.1870 463.2081 L 638.0668 462.8688 Z M 688.3708 494.5399 A 7.48 4.39 90.3 0 0 692.7999 487.0830 A 7.48 4.39 90.3 0 0 688.4492 479.5801 A 7.48 4.39 90.3 0 0 684.0201 487.0370 A 7.48 4.39 90.3 0 0 688.3708 494.5399 Z M 637.5200 496.5000 A 7.49 4.39 90.0 0 0 641.9100 489.0100 A 7.49 4.39 90.0 0 0 637.5200 481.5200 A 7.49 4.39 90.0 0 0 633.1300 489.0100 A 7.49 4.39 90.0 0 0 637.5200 496.5000 Z M 782.3554 505.3013 A 1.75 1.75 0 0 0 779.9277 504.8206 L 761.9119 516.8811 A 1.75 1.75 0 0 0 761.4312 519.3088 L 761.4646 519.3587 A 1.75 1.75 0 0 0 763.8923 519.8394 L 781.9081 507.7789 A 1.75 1.75 0 0 0 782.3888 505.3512 L 782.3554 505.3013 Z M 646.92 519.27 Q 648.86 514.06 654.75 513.82 Q 657.41 513.71 656.03 512.16 A 1.14 1.03 -19.5 0 0 655.19 511.81 Q 649.40 511.93 646.44 515.69 Q 643.95 518.84 645.31 521.94 Q 648.34 528.81 656.44 528.23 A 0.96 0.82 8.6 0 0 657.20 527.76 Q 657.81 526.52 655.75 526.50 Q 649.03 526.44 646.90 520.22 A 1.44 1.37 -45.2 0 1 646.92 519.27 Z M 681.77 542.61 Q 675.97 555.16 662.00 555.25 A 1.28 0.98 16.5 0 0 661.14 555.58 Q 660.31 556.46 661.14 556.98 Q 661.58 557.26 662.42 557.26 Q 676.22 557.24 683.68 543.75 A 1.54 1.53 -58.8 0 0 683.19 541.73 Q 682.41 541.21 681.77 542.61 Z"/>
<rect fill="rgb(60,48,43)" fill-opacity="1.000" x="-10.15" y="-1.80" width="20.30" height="3.60" rx="1.70" transform="translate(693.99,464.23) rotate(15.5)"/>
<rect fill="rgb(60,48,43)" fill-opacity="1.000" x="-10.34" y="-1.80" width="20.68" height="3.60" rx="1.62" transform="translate(628.38,466.49) rotate(-19.5)"/>
<ellipse fill="rgb(51,51,51)" fill-opacity="1.000" cx="0" cy="0" rx="7.48" ry="4.39" transform="translate(688.41,487.06) rotate(90.3)"/>
<ellipse fill="rgb(51,51,51)" fill-opacity="1.000" cx="0" cy="0" rx="7.49" ry="4.39" transform="translate(637.52,489.01) rotate(90.0)"/>
<rect fill="rgb(60,48,43)" fill-opacity="1.000" x="-12.59" y="-1.78" width="25.18" height="3.56" rx="1.75" transform="translate(771.91,512.33) rotate(-33.8)"/>
<path fill="rgb(44,47,51)" fill-opacity="1.000" d="M 646.90 520.22 Q 649.03 526.44 655.75 526.50 Q 657.81 526.52 657.20 527.76 A 0.96 0.82 8.6 0 1 656.44 528.23 Q 648.34 528.81 645.31 521.94 Q 643.95 518.84 646.44 515.69 Q 649.40 511.93 655.19 511.81 A 1.14 1.03 -19.5 0 1 656.03 512.16 Q 657.41 513.71 654.75 513.82 Q 648.86 514.06 646.92 519.27 A 1.44 1.37 -45.2 0 0 646.90 520.22 Z"/>
<path fill="rgb(255,178,162)" fill-opacity="1.000" d="M 445.29 828.50 Q 445.70 828.49 446.00 828.79 Q 485.59 870.92 525.44 912.81 Q 529.60 917.18 533.54 921.75 Q 527.94 928.81 512.06 947.31 Q 497.21 964.61 478.75 974.21 Q 478.55 972.86 477.44 971.31 Q 466.87 956.56 452.20 947.04 Q 436.87 937.10 419.59 931.11 Q 396.10 922.96 371.56 918.93 Q 351.73 915.67 329.00 914.00 Q 326.23 913.80 324.21 914.50 Q 281.40 797.64 239.21 680.55 Q 235.09 669.13 230.10 658.07 Q 213.41 621.11 195.76 584.60 Q 193.99 580.95 194.03 579.18 Q 194.09 575.70 198.00 574.08 Q 201.25 572.75 203.69 575.06 Q 205.53 576.81 207.60 579.66 Q 221.56 598.82 235.61 617.91 Q 235.84 618.23 236.13 618.34 Q 236.97 618.67 236.54 617.45 Q 225.56 586.16 214.80 554.80 Q 213.39 550.69 213.74 548.55 Q 214.39 544.59 218.75 543.50 Q 223.36 542.35 225.91 545.57 Q 226.16 545.88 229.03 551.49 Q 243.36 579.42 257.50 607.45 Q 257.70 607.85 257.95 608.13 Q 259.32 609.71 258.71 607.15 Q 250.59 573.36 242.75 539.50 Q 241.87 535.70 244.03 532.79 Q 245.99 530.15 249.30 529.42 Q 253.81 528.43 257.44 532.31 Q 258.92 533.90 260.21 537.68 Q 273.35 576.32 286.58 614.98 Q 286.91 615.96 287.29 615.00 Q 291.67 603.88 295.84 593.22 Q 298.29 586.95 300.16 584.86 Q 303.99 580.58 309.79 581.57 Q 315.12 582.48 317.78 586.58 Q 319.78 589.67 319.57 593.56 Q 319.55 593.93 318.36 600.44 Q 315.59 615.67 313.50 631.00 Q 312.98 634.83 312.50 643.00 Q 312.17 648.67 314.22 653.23 Q 324.92 677.02 337.60 699.83 Q 379.55 775.25 423.80 848.75 A 0.75 0.75 51.8 0 0 424.98 848.89 L 445.29 828.50 Z M 271.56 610.66 Q 247.40 609.49 230.66 626.46 A 1.37 1.23 -24.0 0 0 230.28 627.31 Q 230.23 628.60 230.68 628.80 A 2.68 2.68 36.2 0 0 233.47 628.37 Q 250.80 613.56 271.24 613.99 A 1.72 1.27 20.9 0 0 272.18 613.73 Q 273.88 612.54 272.42 611.02 A 1.40 1.10 -15.5 0 0 271.56 610.66 Z"/>
<path fill="rgb(44,47,51)" fill-opacity="1.000" d="M 681.77 542.61 Q 682.41 541.21 683.19 541.73 A 1.54 1.53 -58.8 0 1 683.68 543.75 Q 676.22 557.24 662.42 557.26 Q 661.58 557.26 661.14 556.98 Q 660.31 556.46 661.14 555.58 A 1.28 0.98 16.5 0 1 662.00 555.25 Q 675.97 555.16 681.77 542.61 Z"/>
<path fill="rgb(51,51,51)" fill-opacity="1.000" d="M 670.29 625.75 L 668.00 601.04 Q 697.37 599.81 721.82 583.75 Q 722.77 583.13 722.53 583.74 Q 722.46 583.92 722.27 584.07 Q 696.23 604.84 670.29 625.75 Z"/>
<path fill="rgb(60,48,43)" fill-opacity="1.000" d="M 272.42 611.02 Q 273.88 612.54 272.18 613.73 A 1.72 1.27 20.9 0 1 271.24 613.99 Q 250.80 613.56 233.47 628.37 A 2.68 2.68 36.2 0 1 230.68 628.80 Q 230.23 628.60 230.28 627.31 A 1.37 1.23 -24.0 0 1 230.66 626.46 Q 247.40 609.49 271.56 610.66 A 1.40 1.10 -15.5 0 1 272.42 611.02 Z"/>
<path fill="rgb(15,53,198)" fill-opacity="1.000" d="M 809.25 646.79 L 839.00 650.54 Q 826.57 670.18 808.06 687.06 Q 793.53 700.32 776.65 708.29 Q 767.08 712.81 757.84 714.96 Q 744.07 718.16 729.25 717.25 Q 690.25 714.85 662.31 688.69 Q 648.25 675.52 640.21 659.75 L 661.75 655.04 L 665.00 659.79 Q 683.67 686.11 715.50 692.21 Q 712.40 692.14 709.31 692.44 Q 711.28 692.16 712.48 692.86 Q 714.12 693.82 714.18 693.84 Q 717.17 694.87 719.75 694.75 Q 726.87 694.43 732.06 694.61 Q 735.04 694.72 737.44 694.41 Q 740.13 694.08 742.81 693.72 Q 744.11 693.55 746.10 692.91 Q 747.73 692.39 749.42 692.15 Q 752.99 691.63 754.37 691.18 Q 768.27 686.69 781.19 678.19 Q 785.93 675.07 789.49 671.81 Q 790.69 670.72 793.40 668.65 Q 795.45 667.09 797.07 665.10 Q 799.49 662.11 799.58 662.01 Q 802.65 658.51 805.39 654.74 Q 806.07 653.81 806.38 652.71 Q 806.68 651.61 806.96 650.50 L 809.25 646.79 Z"/>
<path fill="rgb(35,48,157)" fill-opacity="1.000" d="M 806.96 650.50 Q 806.68 651.61 806.38 652.71 Q 806.07 653.81 805.39 654.74 Q 802.65 658.51 799.58 662.01 Q 799.49 662.11 797.07 665.10 Q 795.45 667.09 793.40 668.65 Q 790.69 670.72 789.49 671.81 Q 785.93 675.07 781.19 678.19 Q 768.27 686.69 754.37 691.18 Q 752.99 691.63 749.42 692.15 Q 747.73 692.39 746.10 692.91 Q 744.11 693.55 742.81 693.72 Q 740.13 694.08 737.44 694.41 Q 735.04 694.72 732.06 694.61 Q 726.87 694.43 719.75 694.75 Q 717.17 694.87 714.18 693.84 Q 714.12 693.82 712.48 692.86 Q 711.28 692.16 709.31 692.44 Q 712.40 692.14 715.50 692.21 Q 730.65 694.52 745.00 691.50 Q 779.22 684.30 801.75 657.29 L 806.96 650.50 Z"/>
<path fill="rgb(95,122,251)" fill-opacity="1.000" d="M 839.00 650.54 Q 857.34 652.99 875.53 656.32 Q 894.71 659.83 910.94 664.81 Q 915.98 666.36 922.85 669.73 Q 943.78 680.01 963.53 692.41 Q 1002.84 717.09 1041.09 743.46 A 0.58 0.58 30.9 0 1 1041.28 744.20 L 970.92 878.74 A 0.55 0.55 24.5 0 1 970.22 879.00 Q 936.02 865.21 916.44 856.81 Q 914.63 856.04 913.50 856.04 Q 913.19 855.56 912.68 855.33 Q 898.84 849.02 884.75 843.29 Q 882.95 842.53 881.44 842.56 Q 748.39 845.29 567.75 849.79 Q 566.68 849.69 566.44 850.74 Q 562.37 868.44 558.70 886.24 Q 558.60 886.72 558.25 887.04 Q 556.90 886.41 553.75 884.00 Q 502.90 845.10 451.61 805.84 A 0.54 0.53 38.5 0 1 451.52 805.07 Q 477.46 774.01 503.73 744.22 Q 523.17 722.17 540.06 704.81 Q 544.63 700.12 550.42 694.98 Q 556.26 689.79 561.82 686.46 Q 573.32 679.58 587.25 674.75 Q 615.33 665.02 640.21 659.75 Q 648.25 675.52 662.31 688.69 Q 690.25 714.85 729.25 717.25 Q 744.07 718.16 757.84 714.96 Q 767.08 712.81 776.65 708.29 Q 793.53 700.32 808.06 687.06 Q 826.57 670.18 839.00 650.54 Z"/>
<path fill="rgb(235,182,196)" fill-opacity="1.000" d="M 801.75 657.29 Q 779.22 684.30 745.00 691.50 Q 730.65 694.52 715.50 692.21 Q 683.67 686.11 665.00 659.79 Q 666.29 659.22 666.94 660.12 Q 667.46 660.83 667.55 660.93 Q 674.23 667.65 681.07 674.21 Q 681.36 674.49 681.92 674.69 L 684.48 675.60 A 1.51 0.91 74.9 0 1 685.17 676.26 Q 686.73 678.99 689.94 680.31 Q 692.51 681.37 694.50 683.79 A 1.07 1.01 69.1 0 0 695.30 684.18 Q 698.74 684.16 701.77 685.70 Q 701.79 685.71 702.96 686.62 Q 703.63 687.14 704.94 687.56 Q 720.26 692.52 734.92 691.05 Q 742.17 690.32 743.97 690.04 Q 748.51 689.36 752.78 687.49 Q 757.36 685.50 762.20 684.25 Q 765.20 683.47 767.92 682.09 Q 768.71 681.69 773.22 679.09 Q 778.44 676.08 783.21 672.43 Q 789.24 667.81 791.05 666.37 Q 795.28 662.99 798.19 659.44 Q 799.82 657.44 801.75 657.29 Z"/>
<path fill="rgb(95,122,251)" fill-opacity="1.000" d="M 1058.96 763.75 Q 1058.61 763.90 1058.46 764.25 Q 1056.78 766.71 1055.42 769.36 Q 1052.83 774.39 1052.80 774.44 Q 1023.62 827.24 994.75 880.21 L 991.27 886.24 A 1.70 1.50 -63.5 0 1 989.31 887.03 L 974.78 881.07 A 0.68 0.67 24.8 0 1 974.43 880.14 L 1044.33 746.50 A 0.46 0.46 -59.1 0 1 1044.99 746.33 L 1061.52 757.52 A 0.78 0.64 -60.1 0 1 1061.68 758.45 L 1058.96 763.75 Z"/>
<path fill="rgb(255,178,162)" fill-opacity="1.000" d="M 1058.96 763.75 Q 1061.61 765.20 1068.56 769.94 Q 1106.75 795.97 1144.81 822.19 Q 1158.01 831.28 1167.46 843.25 Q 1166.77 843.12 1166.06 843.81 Q 1160.80 848.91 1157.94 852.21 Q 1135.79 877.65 1120.02 907.48 Q 1114.95 917.06 1110.25 929.50 Q 1103.82 946.52 1102.03 963.50 Q 1100.17 981.24 1104.54 998.50 L 935.46 1056.75 L 929.53 1058.74 A 2.20 1.99 -82.6 0 0 928.37 1059.73 Q 924.20 1067.15 918.76 1071.76 Q 911.46 1077.94 902.84 1082.11 Q 880.46 1092.95 855.99 1096.40 Q 845.06 1097.94 841.49 1097.48 Q 833.54 1096.47 828.31 1089.44 Q 815.07 1071.63 809.93 1049.60 Q 808.56 1043.73 808.10 1040.90 Q 807.39 1036.50 807.46 1032.00 Q 807.55 1026.42 811.56 1023.31 Q 819.20 1017.40 830.07 1011.07 Q 876.69 983.94 924.75 959.46 Q 980.18 930.47 1036.27 902.74 Q 1037.26 902.25 1036.27 901.73 L 1011.50 888.71 Q 1011.89 886.97 1012.53 885.30 Q 1035.71 824.86 1058.46 764.25 Q 1058.61 763.90 1058.96 763.75 Z"/>
<path fill="rgb(51,51,51)" fill-opacity="1.000" d="M 1058.46 764.25 Q 1035.71 824.86 1012.53 885.30 Q 1011.89 886.97 1011.50 888.71 L 994.75 880.21 Q 1023.62 827.24 1052.80 774.44 Q 1052.83 774.39 1055.42 769.36 Q 1056.78 766.71 1058.46 764.25 Z"/>
<path fill="rgb(95,122,251)" fill-opacity="1.000" d="M 557.46 891.00 L 553.71 908.00 L 548.25 904.71 Q 547.91 904.18 545.56 902.44 Q 495.84 865.54 446.00 828.79 Q 445.70 828.49 445.29 828.50 L 437.99 822.98 A 0.96 0.90 38.5 0 1 437.79 821.65 L 448.28 808.88 A 0.76 0.76 -51.3 0 1 449.33 808.76 Q 502.84 849.65 556.06 890.44 Q 556.82 891.02 557.46 891.00 Z"/>
<path fill="rgb(51,51,51)" fill-opacity="1.000" d="M 446.00 828.79 Q 495.84 865.54 545.56 902.44 Q 547.91 904.18 548.25 904.71 L 533.54 921.75 Q 529.60 917.18 525.44 912.81 Q 485.59 870.92 446.00 828.79 Z"/>
<path fill="rgb(15,53,198)" fill-opacity="1.000" d="M 884.75 843.29 L 884.51 843.61 A 0.52 0.43 43.9 0 0 884.58 844.23 Q 899.51 860.72 913.68 877.86 Q 913.95 878.19 914.10 878.73 Q 914.54 880.33 916.21 880.50 L 923.96 950.75 L 923.35 950.34 A 1.51 0.61 43.4 0 0 922.51 950.01 Q 633.81 957.36 582.75 958.50 Q 578.42 958.60 576.50 959.29 Q 575.62 958.06 575.50 956.50 Q 572.93 924.75 570.23 893.00 Q 570.20 892.68 569.75 892.71 Q 570.22 888.83 569.81 884.96 Q 569.34 880.61 569.34 880.52 Q 568.29 866.04 567.34 851.55 A 1.48 0.47 -53.0 0 1 567.64 850.69 Q 567.87 850.31 567.75 849.79 Q 748.39 845.29 881.44 842.56 Q 882.95 842.53 884.75 843.29 Z"/>
<path fill="rgb(49,52,55)" fill-opacity="1.000" d="M 884.75 843.29 Q 898.84 849.02 912.68 855.33 Q 913.19 855.56 913.50 856.04 L 916.21 880.50 Q 914.54 880.33 914.10 878.73 Q 913.95 878.19 913.68 877.86 Q 899.51 860.72 884.58 844.23 A 0.52 0.43 43.9 0 1 884.51 843.61 L 884.75 843.29 Z"/>
<path fill="rgb(247,163,149)" fill-opacity="1.000" d="M 1167.46 843.25 Q 1190.08 873.35 1186.83 910.08 Q 1185.95 919.99 1183.00 929.68 Q 1170.15 971.81 1128.44 990.19 Q 1122.16 992.95 1104.54 998.50 Q 1100.17 981.24 1102.03 963.50 Q 1103.82 946.52 1110.25 929.50 Q 1114.95 917.06 1120.02 907.48 Q 1135.79 877.65 1157.94 852.21 Q 1160.80 848.91 1166.06 843.81 Q 1166.77 843.12 1167.46 843.25 Z"/>
<path fill="rgb(49,52,55)" fill-opacity="1.000" d="M 567.75 849.79 Q 567.87 850.31 567.64 850.69 A 1.48 0.47 -53.0 0 0 567.34 851.55 Q 568.29 866.04 569.34 880.52 Q 569.34 880.61 569.81 884.96 Q 570.22 888.83 569.75 892.71 L 554.54 907.60 Q 554.45 907.68 554.24 908.12 Q 554.10 908.42 553.71 908.00 L 557.46 891.00 Q 558.27 889.10 558.25 887.04 Q 558.60 886.72 558.70 886.24 Q 562.37 868.44 566.44 850.74 Q 566.68 849.69 567.75 849.79 Z"/>
<path fill="rgb(247,163,149)" fill-opacity="1.000" d="M 478.75 974.21 Q 444.69 991.69 406.77 984.40 Q 373.04 977.91 349.19 954.06 Q 332.48 937.36 324.21 914.50 Q 326.23 913.80 329.00 914.00 Q 351.73 915.67 371.56 918.93 Q 396.10 922.96 419.59 931.11 Q 436.87 937.10 452.20 947.04 Q 466.87 956.56 477.44 971.31 Q 478.55 972.86 478.75 974.21 Z"/>
<path fill="rgb(95,122,251)" fill-opacity="1.000" d="M 923.96 950.75 L 924.75 959.46 Q 876.69 983.94 830.07 1011.07 Q 819.20 1017.40 811.56 1023.31 Q 807.55 1026.42 807.46 1032.00 Q 807.39 1036.50 808.10 1040.90 Q 808.56 1043.73 809.93 1049.60 Q 815.07 1071.63 828.31 1089.44 Q 833.54 1096.47 841.49 1097.48 Q 845.06 1097.94 855.99 1096.40 Q 880.46 1092.95 902.84 1082.11 Q 911.46 1077.94 918.76 1071.76 Q 924.20 1067.15 928.37 1059.73 A 2.20 1.99 -82.6 0 1 929.53 1058.74 L 935.46 1056.75 Q 938.38 1079.42 940.25 1102.21 Q 926.75 1102.52 913.25 1102.46 Q 857.38 1102.25 801.50 1102.47 Q 792.92 1102.51 774.50 1102.25 Q 742.81 1101.81 701.00 1103.00 Q 699.60 1103.04 700.00 1104.71 Q 692.63 1104.46 685.25 1104.45 Q 637.72 1104.39 590.19 1104.06 A 0.55 0.53 -2.2 0 1 589.64 1103.57 L 576.50 959.29 Q 578.42 958.60 582.75 958.50 Q 633.81 957.36 922.51 950.01 A 1.51 0.61 43.4 0 1 923.35 950.34 L 923.96 950.75 Z"/>
<path fill="rgb(44,47,51)" fill-opacity="1.000" d="M 940.25 1102.21 Q 941.00 1102.50 941.25 1102.50 Q 1023.09 1102.45 1104.94 1102.56 A 1.35 1.12 -19.6 0 1 1105.81 1102.88 Q 1107.15 1104.12 1106.04 1105.18 Q 1105.45 1105.75 1104.27 1105.76 Q 1004.31 1106.45 982.75 1106.00 Q 965.18 1105.63 955.75 1105.77 Q 946.41 1105.91 937.07 1105.86 Q 924.08 1105.78 918.41 1105.81 Q 852.89 1106.24 806.25 1106.00 Q 781.04 1105.87 770.75 1105.98 Q 753.25 1106.18 712.25 1105.25 Q 702.49 1105.03 700.00 1104.71 Q 699.60 1103.04 701.00 1103.00 Q 742.81 1101.81 774.50 1102.25 Q 792.92 1102.51 801.50 1102.47 Q 857.38 1102.25 913.25 1102.46 Q 926.75 1102.52 940.25 1102.21 Z"/>
</svg>